# xmcd CD database file
#
# Track frame offsets:
#	150
#	13572
#	28888
#	40501
#	52548
#	64713
#	77428
#	88188
#	101648
#	115020
#	126541
#	140102
#	150996
#	162977
#	175604
#	192268
#
# Disc length: 2751 seconds
#
# Revision: 0
# Processed by: cddbd v1.5.2PL0 Copyright (c) Steve Scherf et al.
# Submitted via: CDex 1.70beta2
#
DISCID=c30abd10
DTITLE=The Rat Pack - CD 07 Frank Sinatra
DYEAR=1900
DGENRE=Jazz
TTITLE0=(Love is) The Tender Trap (Cahn - Van Heusen)
TTITLE1=I See Your Face Before Me (Schwartz/Dietz)
TTITLE2=What Is This Thing Called Love? (Porter)
TTITLE3=(How Little It Matters) How Little We Know (Springer/Leigh)
TTITLE4=It Never Entered My Mind (Rodgers/Hart)
TTITLE5=Deep In A Dream (Van Heusen/DeLange)
TTITLE6=Hey! Jealous Lover (Cahn/Walker/Twomey)
TTITLE7=I'll Be Around (Wilder)
TTITLE8=Dancing On The Ceiling (Rodgers/Hart)
TTITLE9=Can I Steal A Little Love (Tuminello)
TTITLE10=In The Wee Small Hours Of The Morning (Mann/Hilliard)
TTITLE11=I Guess I'll Have To Change My Plans (Schwartz/Dietz)
TTITLE12=Stars Fell On Alabama (Perkins/Parish)
TTITLE13=Can't We Be Friends? (Swift/James)
TTITLE14=I Get Along Without You Very Well (Carmichael)
TTITLE15=I Got Plenty O'Nuttin' (Heyward/Gershwin/Gershwin)
EXTD=
EXTT0=
EXTT1=
EXTT2=
EXTT3=
EXTT4=
EXTT5=
EXTT6=
EXTT7=
EXTT8=
EXTT9=
EXTT10=
EXTT11=
EXTT12=
EXTT13=
EXTT14=
EXTT15=
PLAYORDER=
